<svg xmlns="http://www.w3.org/2000/svg" xmlns:xlink="http://www.w3.org/1999/xlink" width="163.7" height="25.669" viewBox="0 0 163.7 25.669">
  <defs>
    <clipPath id="clip-path">
      <rect id="長方形_14" data-name="長方形 14" width="163.7" height="25.669" fill="none"/>
    </clipPath>
  </defs>
  <g id="グループ_131" data-name="グループ 131" transform="translate(0 -0.243)">
    <g id="グループ_10" data-name="グループ 10" transform="translate(0 0.243)" clip-path="url(#clip-path)">
      <path id="パス_9" data-name="パス 9" d="M72.6,8.49h2.916V7.324H72.6Zm0-2.333h2.916V4.991H72.6Zm5.249,11.226c0,1.569-.642,1.983-2.642,1.983-.286,0-.618,0-1.166-.035a5.715,5.715,0,0,0-.548-1.889,11.676,11.676,0,0,0,1.481.146c.583,0,.542-.076.542-.455V9.657h-4.77a15.213,15.213,0,0,0,.1-1.545V5.405c0-.647-.07-1.126-.1-1.645a14.6,14.6,0,0,0,1.75.064h3.365A18.654,18.654,0,0,0,77.8,3.761c-.052.647.052,1.085.052,1.965Zm-8.6-5.394c0,.583,0,.583-.052,1.75h1.65v-1.75Zm-1.691,1.75c.035-.583-.076-.927-.076-1.75-.811,0-1.3-.082-1.884-.029V10.4c.583.058,1.166-.163,2.012-.163h5.161c.863,0,1.6.222,1.6.163v1.569a7.51,7.51,0,0,0-1.75-.076v1.843h.4a13.375,13.375,0,0,0,1.936-.274v1.6a16.814,16.814,0,0,0-1.936-.157H72.6v2.7a3.094,3.094,0,0,0,.216,1.382H70.981c.076-.583-.128-.63-.128-1.405V14.905H69.1a6.48,6.48,0,0,1-2.158,4.38,6.612,6.612,0,0,0-1.4-1.166A4.258,4.258,0,0,0,67.453,15a16.516,16.516,0,0,0-1.837.082V13.465a10.953,10.953,0,0,0,1.75.274ZM64.438,8.49h3.5V7.324h-3.5Zm0-2.333h3.5V4.991h-3.5Zm0,11.25a10.257,10.257,0,0,0,.286,2.164H62.671a21.045,21.045,0,0,0,0-2.187V3.738a17.045,17.045,0,0,0,1.843.064h3.2a17.962,17.962,0,0,0,1.924-.064c-.035.5.052,1.032.052,1.644v2.73c0,.793-.1,1.166-.07,1.6-.432-.035-1.1-.041-1.75-.041H64.438Z" transform="translate(-26.122 -1.7)" fill="#fff"/>
      <path id="パス_10" data-name="パス 10" d="M107.922,17.985A19.856,19.856,0,0,0,105.531,13l1.633-.775a26.541,26.541,0,0,1,2.554,4.747Zm-4.98-2.77a13.147,13.147,0,0,0-2.683-2.916l1.347-1.079a16.265,16.265,0,0,1,2.735,2.753Zm-2.916-3.581a12.339,12.339,0,0,0-.035,1.75V16.5c0,.583.152.63,1.9.63s2.076-.052,2.257-.327.222-.665.262-1.977a4.462,4.462,0,0,0,1.9.63c-.181,3.254-.408,3.5-4.578,3.5-2.986,0-3.5-.292-3.5-1.785v-3.8a11.1,11.1,0,0,0-.286-1.75Zm.548-7.056a8.7,8.7,0,0,0-.21-1.691h2.2a10.67,10.67,0,0,0-.239,1.691v.641h4.916a14.825,14.825,0,0,0,2.082-.187V7.027c-.583-.052-1.289-.058-2.082-.058h-4.916V9.3h4.082a10.212,10.212,0,0,0,1.75-.222v1.89c-.583-.07-.951.082-1.8.082H96.818c-.84,0-1.493-.152-2.076-.082V9.079a14.183,14.183,0,0,0,2.076.222h3.756V6.968H95.955a17.253,17.253,0,0,0-1.8.058V5.032a5.938,5.938,0,0,0,1.8.187h4.619ZM93.4,17.174a11.407,11.407,0,0,0,2.1-4.893l1.82.432a16.882,16.882,0,0,1-2.117,5.54Z" transform="translate(-38.931 -1.345)" fill="#fff"/>
      <path id="パス_11" data-name="パス 11" d="M134.449,11.635h3.5V10.468h-3.5Zm0-2.333h3.5V8.136h-3.5ZM129.2,11.635h3.5V10.468h-3.5Zm0-2.333h3.5V8.136h-3.5Zm2.263,9.536A10.772,10.772,0,0,0,129,16.5l1.405-1.132a10.486,10.486,0,0,1,2.537,2.193ZM127.7,5.8a19.16,19.16,0,0,0-2,.2V4.187a20.407,20.407,0,0,0,2.041-.134h4.852a6.572,6.572,0,0,0-.1-1.166h2.07a6.068,6.068,0,0,0-.111,1.166h5.184a16.934,16.934,0,0,0,1.814.134v1.82a14.676,14.676,0,0,0-1.75-.181h-5.249V6.993h3.942a9.764,9.764,0,0,0,1.528-.187,7.475,7.475,0,0,0-.222,1.289v3.453c0,.583.286.88.338,1.387-.525-.035-.921-.052-1.5-.052v1.108h1.12a7.289,7.289,0,0,0,1.8-.391v1.8a15.779,15.779,0,0,0-1.75-.245h-1.166v2.455a1.3,1.3,0,0,1-.671,1.225,4.715,4.715,0,0,1-2.333.338c-.251,0-.659,0-1.254-.035a5.8,5.8,0,0,0-.554-1.8,12.657,12.657,0,0,0,1.866.146c.647,0,.624-.058.624-.4V15.134H127.7c-.63,0-1.417.187-2,.245v-1.79a11.456,11.456,0,0,0,2.041.391H136.2V12.813h-7.22c-.8,0-1.131.047-1.633.081a11.283,11.283,0,0,0,.1-1.359V8.071a9.936,9.936,0,0,0-.1-1.289,11.209,11.209,0,0,0,1.633.187H132.7V5.8Z" transform="translate(-52.395 -1.345)" fill="#fff"/>
      <path id="パス_12" data-name="パス 12" d="M168.561,9.089h2.916V7.922h-2.916Zm0-2.333h2.916V5.59h-2.916Zm4.665,10.591c0,1.692-.437,2.018-2.957,2.018-.321,0-.711,0-1.429-.041a7.859,7.859,0,0,0-.478-1.924,18.835,18.835,0,0,0,2.432.164c.542,0,.682-.071.682-.432V10.255h-3.324c-.647,0-1.12.117-1.5.135a8.994,8.994,0,0,0,.187-1.481V5.473c0-.583-.152-1.131-.187-1.674a13.172,13.172,0,0,0,1.662.041h3.312a14.972,14.972,0,0,0,1.75-.041,19.511,19.511,0,0,0-.152,2ZM160.4,9.089h2.916V7.922H160.4Zm0-2.333h2.916V5.59H160.4Zm0,10.626a12.187,12.187,0,0,0,.262,2.2h-2.088a18.92,18.92,0,0,0,.076-2.2V5.794c0-.939,0-1.458-.052-2.018a16.224,16.224,0,0,0,1.814.041h3.126a13.418,13.418,0,0,0,1.691-.041c-.035.49-.163.991-.163,1.674V8.885a9.154,9.154,0,0,0,.146,1.481c-.414,0-.881-.135-1.493-.135H160.4Z" transform="translate(-66.095 -1.716)" fill="#fff"/>
      <path id="パス_13" data-name="パス 13" d="M203.824,3.79a12.538,12.538,0,0,1,1.405,2.677l-1.388.811a9.443,9.443,0,0,0-1.295-2.805ZM196.7,5.8a20.513,20.513,0,0,1,.3,2.333h.735a11.625,11.625,0,0,0,.4-2.333Zm-.437,9.914H198.6V14.55h-2.333Zm0-2.916H198.6V11.634h-2.333Zm-.682-4.665a18.172,18.172,0,0,0-.414-2.006,2.162,2.162,0,0,0-.653-.036V5.3l-.583-.035V8.135Zm-4.566,6.59c.583-.157,1.166-.2,1.166-.338V12.217h-1.166Zm0-3.674h1.166V8.718h-1.166Zm0-3.5h1.166V5.219h-1.166Zm9.331-1.481a1.8,1.8,0,0,0-.653.07,18.989,18.989,0,0,1-.531,1.994h1.405c-.035-1.166-.035-1.422-.052-3.778a11.35,11.35,0,0,0-.058-1.47h1.855a15.616,15.616,0,0,0-.1,2.426c0,.63,0,2.239.035,2.823h1.026a6.225,6.225,0,0,0,1.75-.279V9.709c-.583-.076-.706.175-1.75.175h-.956c.07,1.166.181,2.187.327,3.1a11.655,11.655,0,0,0,.986-2.6l1.44.869c-.1.216-.251.5-.4.829A20.976,20.976,0,0,1,203.159,15a7.812,7.812,0,0,0,.583,1.452c.163.275.233.362.268.362.128,0,.233-.828.292-2.216a6.722,6.722,0,0,0,1.4.933,8.159,8.159,0,0,1-.519,2.578,1.2,1.2,0,0,1-1.079.822c-.758,0-1.586-.863-2.216-2.28a15.191,15.191,0,0,1-2.823,2.607,6.051,6.051,0,0,0-1.12-1.452c.63-.414.851-.344,1.207-.927h-2.916v1.166h-1.382a12.359,12.359,0,0,0,.216-1.394V11.867a11.088,11.088,0,0,0-.122-1.51,5.177,5.177,0,0,0,1.056.11H198.8a8.944,8.944,0,0,0,1.073-.11,7.663,7.663,0,0,0-.134,1.527v4.531A8.048,8.048,0,0,0,201.217,15a27.352,27.352,0,0,1-.624-5.12h-6.66v7.541a9.543,9.543,0,0,0,.227,1.79h-1.8c.07-.583-.2-.98-.2-1.808v-1.33a16.409,16.409,0,0,1-2.088.682,5.268,5.268,0,0,0-1.114.362l-.251-1.89a9.276,9.276,0,0,0,1.12-.146V5.265c-.583,0-.583.035-1.166.07V3.463a15.47,15.47,0,0,0,1.645,0h2.788a7.582,7.582,0,0,0,1.4,0V4.542a10.1,10.1,0,0,0,1.23.093h1.1V4.507a7.606,7.606,0,0,0-.385-1.621h1.907a9.836,9.836,0,0,0-.356,1.621v.128h.9c.63,0,.851-.035,1.435-.07Z" transform="translate(-78.637 -1.345)" fill="#fff"/>
      <path id="パス_14" data-name="パス 14" d="M230.209,9.718a16.091,16.091,0,0,0,2.537,4.537,12.113,12.113,0,0,0,4.875,3.336,7.425,7.425,0,0,0-1.295,2.012,14.573,14.573,0,0,1-4.356-3.225,13.543,13.543,0,0,1-2.665-4.286,10.675,10.675,0,0,1-2.875,4.73,13.42,13.42,0,0,1-4.211,2.77A7.339,7.339,0,0,0,221,17.737a12.559,12.559,0,0,0,2.858-1.446,8.9,8.9,0,0,0,3.96-6.573h-4.135a18.584,18.584,0,0,0-2.251,0V7.478c.583.076,1.207-.093,2.251-.093H228c.035-.583.035-.985.035-1.924a8.376,8.376,0,0,0-.122-1.575h2.333a9.7,9.7,0,0,0-.128,1.9c0,.717,0,1.015-.035,1.6h4.665c.991,0,1.814.169,2.4.093V9.694c-.583-.076-1.423,0-2.379,0Z" transform="translate(-92.117 -1.761)" fill="#fff"/>
      <path id="パス_15" data-name="パス 15" d="M256.669,5.915c-.4-.583-.647-1.166-1.312-2.041l1.75-.5a11.926,11.926,0,0,1,1.6,2.543h1.855a5.64,5.64,0,0,0-1.044-2.257l1.82-.5a14.375,14.375,0,0,1,1.225,2.758h1.493A10.356,10.356,0,0,0,265.5,3.2l1.907.583a22.634,22.634,0,0,1-1.336,2.129h.793a17.446,17.446,0,0,0,2.123-.117,9.233,9.233,0,0,0-.128,1.411V8.848a3.1,3.1,0,0,0,.2,1.166h-1.948V7.682H255.451v2.333h-1.715a7.216,7.216,0,0,0-.035-1.166V7.21a12.392,12.392,0,0,0,0-1.411,16.7,16.7,0,0,0,2.146.117Zm-.921,8.748a14.764,14.764,0,0,0-2.047,0V12.7a13.621,13.621,0,0,0,2.029.216H260.7V12.68a2.613,2.613,0,0,0-.216-.933h.752c.758-.583,1.353-.583,2.088-1.166h-4.858c-.717,0-1.266-.274-1.849-.222V8.609a16.44,16.44,0,0,0,1.866.216h5.832a6.3,6.3,0,0,0,1.347-.146l.974,1.044c-.286.233-.3.216-.641.507-1.242,1.061-2.379,1.709-3.546,2.554v.122h4.619a18.481,18.481,0,0,0,2.379-.216v1.942c-.583-.07-1.464,0-2.4,0h-4.6v2.951a1.872,1.872,0,0,1-.2,1.114c-.309.432-.91.583-2.5.583-.233,0-.8,0-1.75-.058a6.07,6.07,0,0,0-.583-1.872,19.365,19.365,0,0,0,2.28.163c.77,0,.98-.052.98-.4V14.663Z" transform="translate(-105.747 -1.458)" fill="#fff"/>
      <path id="パス_16" data-name="パス 16" d="M1.418,10.6C3.885,4.5,7,.862,8.935.821,11.268.757,12.609,2.2,13.67,4.752s1.668,4.816,2.146,5.983,2.968,4.082,4.368,4.608a3.045,3.045,0,0,0,3.447-.321c1.225-.9,2.263-3.552,3.1-6.467S27.941,2.413,27,1.906,24.36,2.1,22.29,3.4s-5.476,4.665-9.722,9.541c0,0,5.476-7.581,9.663-10.626C26.716-.929,29.7.442,30.5,1.072S32.56,3.084,31.8,6.735s-3.447,10.5-5.972,13.192a5.167,5.167,0,0,1-4.56,1.75c-1.936-.28-3.721-4.082-4.4-6.053s-.525-2.5-1.266-3.983a12.623,12.623,0,0,0-4.881-4.572c-1.528-.577-2.572-.169-3.225.91A23.838,23.838,0,0,0,4.24,15.983c-.607,3.645.047,4.345,1.89,4.082,3.312-.448,10.171-7.68,13.448-11.546a60.766,60.766,0,0,1-7.99,9.535c-3.942,3.511-6.712,4.619-9.762,3.12-3.855-1.9-.408-10.573-.408-10.573" transform="translate(0 -0.242)" fill="#db5411"/>
      <path id="パス_17" data-name="パス 17" d="M12.638,38.886l-1.61,1.4.816,1.516h-.939l-.776-1.493,1.615-1.423Zm-2.111,0L9.617,41.8H8.911l.91-2.916Z" transform="translate(-3.714 -16.35)" fill="#11337f"/>
      <path id="パス_18" data-name="パス 18" d="M16.859,40.636l-.07-1.365L16,40.636Zm-.391-1.75h1l.192,2.916h-.776l-.047-.583h-1.2L15.2,41.8h-.776Z" transform="translate(-6.011 -16.35)" fill="#11337f"/>
      <path id="パス_19" data-name="パス 19" d="M22.605,38.886,21.7,41.8h-.735l.91-2.916Z" transform="translate(-8.737 -16.35)" fill="#11337f"/>
      <path id="パス_20" data-name="パス 20" d="M27.074,39.461h-1.79c-.257,0-.309-.058-.367.14l-.058.233c-.041.157,0,.21.315.21h1.032c.4,0,.472-.058.583,0s.169.2.1.484l-.175.723a.787.787,0,0,1-.49.531c-.187.082-.373,0-.816,0h-1.9l.175-.583H25.4c.449,0,.5.035.554-.14l.087-.257c.052-.21,0-.187-.461-.187h-.974c-.5,0-.676-.222-.583-.618l.163-.49c.157-.525.42-.641.939-.641h2.111Z" transform="translate(-9.8 -16.342)" fill="#11337f"/>
      <path id="パス_21" data-name="パス 21" d="M31.194,38.886l-.35,1.166h1.423l.35-1.166h.723L32.424,41.8H31.7l.391-1.166H30.669L30.278,41.8h-.717l.91-2.916Z" transform="translate(-12.322 -16.35)" fill="#11337f"/>
      <path id="パス_22" data-name="パス 22" d="M37.445,38.886l-.91,2.916H35.8l.91-2.916Z" transform="translate(-14.922 -16.35)" fill="#11337f"/>
      <path id="パス_23" data-name="パス 23" d="M65.034,40.968l-1.668-2.129,1.7-1.93h.974l-1.75,1.878,1.75,2.2ZM62.7,36.886h.583v4.082H62.7Z" transform="translate(-26.135 -15.516)" fill="#fff"/>
      <path id="パス_24" data-name="パス 24" d="M71.095,39.219H72.36l-.636-1.8ZM69.7,40.968l1.65-4.082h.816l1.65,4.082h-.857L72.594,39.8h-1.75l-.362,1.166Z" transform="translate(-29.053 -15.516)" fill="#fff"/>
      <rect id="長方形_9" data-name="長方形 9" width="0.583" height="4.082" transform="translate(46.48 21.37)" fill="#fff"/>
      <path id="パス_25" data-name="パス 25" d="M83.7,39.983a5.149,5.149,0,0,0,1.166.216c.525,0,.752-.216.752-.507s-.087-.455-.641-.717l-.3-.141c-.688-.321-.892-.682-.892-1.2,0-.729.426-1.278,1.411-1.278.286,0,.857.047.857.141v.746c0-.128-.519-.187-.857-.187-.467,0-.676.175-.676.479s.117.4.583.583l.332.146c.706.338,1.038.659,1.038,1.23,0,.846-.583,1.377-1.65,1.377a5.7,5.7,0,0,1-1.091-.175Z" transform="translate(-34.888 -15.295)" fill="#fff"/>
      <path id="パス_26" data-name="パス 26" d="M91.7,40.968V36.886h.583v1.75h2.333v-1.75H95.2v4.082h-.583v-1.75H92.284v1.75Z" transform="translate(-38.223 -15.516)" fill="#fff"/>
      <rect id="長方形_10" data-name="長方形 10" width="1.166" height="4.082" transform="translate(58.727 21.37)" fill="#fff"/>
      <path id="パス_27" data-name="パス 27" d="M110.284,37.469v1.166H111c.5,0,.8-.082.8-.583s-.262-.583-.77-.583Zm-.583,3.5V36.886h1.51c.851,0,1.435.21,1.435,1.061s-.583,1.271-1.528,1.271h-.834v1.75Z" transform="translate(-45.725 -15.516)" fill="#fff"/>
      <path id="パス_28" data-name="パス 28" d="M118.284,37.469v1.166h.472c.507,0,.863-.128.863-.624s-.286-.542-.741-.542Zm-.583,3.5V36.886h1.382c.851,0,1.365.28,1.365,1.05a1.114,1.114,0,0,1-.863,1.166l1.335,1.89h-.951l-1.1-1.75h-.583v1.75Z" transform="translate(-49.06 -15.516)" fill="#fff"/>
      <path id="パス_29" data-name="パス 29" d="M128.284,38.61c0-1.224-.583-1.545-1.219-1.545s-1.219.373-1.219,1.6.583,1.534,1.219,1.534,1.219-.367,1.219-1.587M125,38.669a2.065,2.065,0,0,1,2.064-2.333c1.23,0,2.018.706,2.018,2.274a2.055,2.055,0,0,1-2.059,2.333c-1.242,0-2.024-.717-2.024-2.274" transform="translate(-52.103 -15.287)" fill="#fff"/>
      <path id="パス_30" data-name="パス 30" d="M134.711,40.968V36.886h2.916v.583h-1.75v1.166h1.166v.583h-1.166v1.75Z" transform="translate(-56.15 -15.516)" fill="#fff"/>
      <path id="パス_31" data-name="パス 31" d="M142.711,40.968V36.886h2.333v.583h-1.75v1.166h1.75v.583h-1.75v1.166h1.75v.583Z" transform="translate(-59.485 -15.516)" fill="#fff"/>
      <path id="パス_32" data-name="パス 32" d="M149.6,39.983c0,.122.624.216,1.038.216.525,0,.7-.216.7-.507s-.111-.455-.671-.717l-.309-.141c-.688-.321-.9-.682-.9-1.2,0-.729.531-1.278,1.516-1.278a6.019,6.019,0,0,1,.962.141v.746a3.922,3.922,0,0,0-.962-.187c-.472,0-.729.175-.729.479s.093.4.542.583l.321.146c.706.338,1.026.659,1.026,1.23,0,.846-.49,1.377-1.54,1.377-.42,0-.991-.076-.991-.175Z" transform="translate(-62.294 -15.295)" fill="#fff"/>
      <path id="パス_33" data-name="パス 33" d="M156.63,39.983c0,.122.647.216,1.061.216.525,0,.711-.216.711-.507s-.111-.455-.665-.717l-.309-.141c-.688-.321-.9-.682-.9-1.2,0-.729.507-1.278,1.493-1.278.286,0,.939.047.939.141v.746a3.755,3.755,0,0,0-.945-.187c-.467,0-.711.175-.711.479s.093.4.542.583l.327.146c.706.338,1.032.659,1.032,1.23,0,.846-.513,1.377-1.569,1.377-.414,0-1.009-.076-1.009-.175Z" transform="translate(-65.245 -15.295)" fill="#fff"/>
      <rect id="長方形_11" data-name="長方形 11" width="1.166" height="4.082" transform="translate(95.467 21.37)" fill="#fff"/>
      <path id="パス_34" data-name="パス 34" d="M171.774,38.61c0-1.224-.583-1.545-1.219-1.545s-1.219.373-1.219,1.6.583,1.534,1.219,1.534,1.219-.367,1.219-1.587m-3.283.059a2.065,2.065,0,0,1,2.064-2.333c1.231,0,2.053.682,2.053,2.245a2.051,2.051,0,0,1-2.053,2.333c-1.242,0-2.064-.688-2.064-2.245" transform="translate(-70.23 -15.287)" fill="#fff"/>
      <path id="パス_35" data-name="パス 35" d="M178.711,40.968V36.886h.706l2.21,2.694V36.886h.583v4.082H181.5l-2.2-3.178v3.178Z" transform="translate(-74.49 -15.516)" fill="#fff"/>
      <path id="パス_36" data-name="パス 36" d="M188.315,39.219h1.266l-.636-1.8Zm-1.394,1.75,1.65-4.082h.816l1.65,4.082h-.851l-.373-1.166h-1.75l-.362,1.166Z" transform="translate(-77.912 -15.516)" fill="#fff"/>
      <path id="パス_37" data-name="パス 37" d="M196.711,40.968V36.886h.583v3.5h2.333v.583Z" transform="translate(-81.993 -15.516)" fill="#fff"/>
      <path id="パス_38" data-name="パス 38" d="M210.025,36.886h1.166v2.537a1.639,1.639,0,0,1-1.52,1.75,1.679,1.679,0,0,1-.23,0,1.563,1.563,0,0,1-1.75-1.75V36.886h.583v2.333c0,.752.152,1.219.9,1.219.647,0,.846-.391.846-1.219Z" transform="translate(-86.565 -15.516)" fill="#fff"/>
      <path id="パス_39" data-name="パス 39" d="M216.711,40.968V36.886h.834l2.082,2.694V36.886h.583v4.082h-.583l-2.333-3.178v3.178Z" transform="translate(-90.329 -15.516)" fill="#fff"/>
      <rect id="長方形_12" data-name="長方形 12" width="0.583" height="4.082" transform="translate(132.208 21.37)" fill="#fff"/>
      <path id="パス_40" data-name="パス 40" d="M231.809,40.968l-1.458-4.082h.834l1.1,3.476,1.137-3.476h.811l-1.487,4.082Z" transform="translate(-96.015 -15.516)" fill="#fff"/>
      <path id="パス_41" data-name="パス 41" d="M239.711,40.968V36.886h2.333v.583h-1.75v1.166h1.75v.583h-1.75v1.166h2.333v.583Z" transform="translate(-99.916 -15.516)" fill="#fff"/>
      <path id="パス_42" data-name="パス 42" d="M248.284,37.469v1.166h.356c.507,0,.869-.128.869-.624s-.292-.542-.746-.542Zm-.583,3.5V36.886h1.265c.851,0,1.365.28,1.365,1.05a1.12,1.12,0,0,1-.857,1.166l1.318,1.866h-.933l-1.108-1.75h-.467v1.75Z" transform="translate(-103.246 -15.516)" fill="#fff"/>
      <path id="パス_43" data-name="パス 43" d="M254.7,39.983a5.214,5.214,0,0,0,1.166.216c.525,0,.764-.216.764-.507s-.082-.455-.641-.717l-.292-.141c-.694-.321-.9-.682-.9-1.2,0-.729.408-1.278,1.394-1.278.286,0,.84.047.84.141v.746c0-.128-.5-.187-.84-.187-.467,0-.659.175-.659.479s.122.4.583.583l.332.146c.711.338,1.044.659,1.044,1.23,0,.846-.612,1.377-1.668,1.377a5.8,5.8,0,0,1-1.114-.175Z" transform="translate(-106.164 -15.295)" fill="#fff"/>
      <rect id="長方形_13" data-name="長方形 13" width="0.583" height="4.082" transform="translate(153.202 21.37)" fill="#fff"/>
      <path id="パス_44" data-name="パス 44" d="M267.867,40.968v-3.5H266.7v-.583h3.5v.583h-1.166v3.5Z" transform="translate(-111.166 -15.516)" fill="#fff"/>
      <path id="パス_45" data-name="パス 45" d="M275.609,40.968V39.335l-1.528-2.449h.869l.986,1.978.986-1.978h.816l-1.545,2.444v1.639Z" transform="translate(-114.242 -15.516)" fill="#fff"/>
    </g>
  </g>
</svg>
