<svg xmlns="http://www.w3.org/2000/svg" xmlns:xlink="http://www.w3.org/1999/xlink" width="280.701" height="44.017" viewBox="0 0 280.701 44.017">
  <defs>
    <clipPath id="clip-path">
      <rect id="長方形_89" data-name="長方形 89" width="280.701" height="44.017" transform="translate(0 0)" fill="none"/>
    </clipPath>
  </defs>
  <g id="グループ_79" data-name="グループ 79" transform="translate(-1621 -1353)">
    <g id="グループ_78" data-name="グループ 78" transform="translate(1621 1353)">
      <g id="グループ_77" data-name="グループ 77" clip-path="url(#clip-path)">
        <path id="パス_6" data-name="パス 6" d="M65.7,26.935a17.588,17.588,0,0,0,.49,3.71h-3.52a36.083,36.083,0,0,0,0-3.75V3.495a28.974,28.974,0,0,0,3.16.11h5.49a30.543,30.543,0,0,0,3.3-.11c-.06.86.09,1.77.09,2.82v4.68c0,1.36-.18,2-.12,2.74-.74-.06-1.88-.07-3-.07H65.7Zm0-19.29h6v-2h-6Zm0,4h6v-2h-6Zm5.36,9c.06-1-.13-1.59-.13-3-1.39,0-2.23-.14-3.23-.05v-2.67c1,.1,2-.28,3.45-.28H80c1.48,0,2.75.38,2.75.28v2.69a12.822,12.822,0,0,0-3-.13v3.16h.68a23.075,23.075,0,0,0,3.32-.47v2.74a28.83,28.83,0,0,0-3.32-.27H79.7v4.63a5.3,5.3,0,0,0,.37,2.37h-3.15c.13-1-.22-1.08-.22-2.41v-4.59h-3a11.112,11.112,0,0,1-3.7,7.51,11.337,11.337,0,0,0-2.4-2,7.3,7.3,0,0,0,3.27-5.35,28.321,28.321,0,0,0-3.15.14v-2.77a18.9,18.9,0,0,0,3,.47Zm2.9-3c0,1,0,1-.09,3H76.7v-3ZM88.7,26.9c0,2.69-1.1,3.4-4.53,3.4-.49,0-1.06,0-2-.06a9.812,9.812,0,0,0-.94-3.24,19.663,19.663,0,0,0,2.54.25c1,0,.93-.13.93-.78V13.645h-8.18a26.089,26.089,0,0,0,.18-2.65V6.355c0-1.11-.12-1.93-.18-2.82a25.042,25.042,0,0,0,3,.11h5.77a31.986,31.986,0,0,0,3.32-.11c-.09,1.11.09,1.86.09,3.37Zm-9-19.25h5v-2h-5Zm0,4h5v-2h-5Z" fill="#231815"/>
        <path id="パス_7" data-name="パス 7" d="M93.4,27.144a19.56,19.56,0,0,0,3.6-8.39l3.12.74a28.948,28.948,0,0,1-3.63,9.5Zm12.3-21.6a14.909,14.909,0,0,0-.36-2.9h3.77a18.3,18.3,0,0,0-.41,2.9v1.1h8.43a25.572,25.572,0,0,0,3.57-.32v3.42c-1-.09-2.21-.1-3.57-.1H108.7v4h7a17.511,17.511,0,0,0,3-.38V16.5c-1-.12-1.63.14-3.08.14H99.261c-1.44,0-2.56-.26-3.56-.14v-3.24a24.32,24.32,0,0,0,3.56.38h6.44v-4h-7.92a29.583,29.583,0,0,0-3.08.1V6.324a10.183,10.183,0,0,0,3.08.32h7.92Zm-.94,12.1a21.157,21.157,0,0,0-.06,3v5.35c0,1,.26,1.08,3.25,1.08s3.56-.09,3.87-.56.38-1.14.45-3.39a7.637,7.637,0,0,0,3.26,1.08c-.31,5.58-.7,6-7.85,6-5.12,0-6-.5-6-3.06v-6.51a19.032,19.032,0,0,0-.49-3Zm5,6.14a22.543,22.543,0,0,0-4.6-5l2.31-1.85a27.891,27.891,0,0,1,4.69,4.72Zm8.54,4.75a34.046,34.046,0,0,0-4.1-8.54l2.8-1.33a45.555,45.555,0,0,1,4.38,8.14Z" fill="#231815"/>
        <path id="パス_8" data-name="パス 8" d="M129.131,7.645a33.125,33.125,0,0,0-3.43.35V4.875a34.992,34.992,0,0,0,3.5-.23h8.32a11.269,11.269,0,0,0-.18-2h3.55a10.408,10.408,0,0,0-.19,2h8.89c1.54,0,2.11.38,3.11.23v3.12a25.374,25.374,0,0,0-3-.31h-9v2h6.76a16.862,16.862,0,0,0,2.62-.32,12.817,12.817,0,0,0-.38,2.21V17.5c0,1,.49,1.51.58,2.38-.9-.06-1.58-.09-2.58-.09v1.9h1.92c1.54,0,2.08-.52,3.08-.67V24.1a27.058,27.058,0,0,0-3-.42h-2V27.9a2.231,2.231,0,0,1-1.15,2.1c-.68.43-1.83.58-4,.58-.43,0-1.13,0-2.15-.06a9.938,9.938,0,0,0-.95-3.08,21.7,21.7,0,0,0,3.2.25c1.11,0,1.07-.1,1.07-.68v-3.36h-14.59c-1.08,0-2.43.32-3.43.42V21a19.468,19.468,0,0,0,3.5.67h14.5v-2h-12.38c-1.38,0-1.94.08-2.8.14a19.344,19.344,0,0,0,.18-2.33v-5.94a17.032,17.032,0,0,0-.18-2.21,19.22,19.22,0,0,0,2.8.32h6.38v-2ZM135.581,30a18.515,18.515,0,0,0-4.23-4l2.41-1.94a17.981,17.981,0,0,1,4.35,3.76Zm-3.88-16.35h6v-2h-6Zm0,4h6v-2h-6Zm9-4h6v-2h-6Zm0,4h6v-2h-6Z" fill="#231815"/>
        <path id="パス_9" data-name="パス 9" d="M161.7,26.865a20.9,20.9,0,0,0,.45,3.78h-3.58a32.454,32.454,0,0,0,.13-3.78V6.995c0-1.61,0-2.5-.09-3.46a27.82,27.82,0,0,0,3.11.07h5.36a23.008,23.008,0,0,0,2.9-.07c-.06.84-.28,1.7-.28,2.87V12.3a15.69,15.69,0,0,0,.25,2.54c-.71,0-1.51-.23-2.56-.23H161.7Zm0-18.22h5v-2h-5Zm0,4h5v-2h-5Zm22,14.16c0,2.9-.75,3.46-5.07,3.46-.55,0-1.22,0-2.45-.07a13.464,13.464,0,0,0-.82-3.3,32.3,32.3,0,0,0,4.17.28c.93,0,1.17-.12,1.17-.74V14.645H175c-1.11,0-1.92.2-2.57.23a15.41,15.41,0,0,0,.32-2.54V6.445c0-1-.26-1.94-.32-2.87a22.587,22.587,0,0,0,2.85.07h5.68a25.674,25.674,0,0,0,3-.07,33.438,33.438,0,0,0-.26,3.42Zm-8-18.16h5v-2h-5Zm0,4h5v-2h-5Z" fill="#231815"/>
        <path id="パス_10" data-name="パス 10" d="M208.7,8.1a3.1,3.1,0,0,0-1.12.12,32.561,32.561,0,0,1-.91,3.42h2.41c-.06-2-.06-2.44-.09-6.48a19.459,19.459,0,0,0-.1-2.52h3.18a26.773,26.773,0,0,0-.18,4.16c0,1.08,0,3.84.06,4.84h1.76a10.64,10.64,0,0,0,3-.48v3.18c-1-.13-1.21.3-3,.3h-1.64c.12,2,.31,3.75.56,5.32a19.987,19.987,0,0,0,1.69-4.46l2.47,1.49c-.18.37-.43.86-.68,1.42a35.857,35.857,0,0,1-2.59,5,13.372,13.372,0,0,0,1,2.49c.28.47.4.62.46.62.22,0,.4-1.42.5-3.8a11.526,11.526,0,0,0,2.4,1.6,13.99,13.99,0,0,1-.89,4.42,2.052,2.052,0,0,1-1.85,1.41c-1.3,0-2.72-1.48-3.8-3.91a26.05,26.05,0,0,1-4.84,4.47,10.377,10.377,0,0,0-1.92-2.49c1.08-.71,1.46-.59,2.07-1.59h-5v2h-2.37a21.2,21.2,0,0,0,.37-2.39v-8.2a19.039,19.039,0,0,0-.21-2.59,8.879,8.879,0,0,0,1.81.19h4.79a15.136,15.136,0,0,0,1.84-.19,13.154,13.154,0,0,0-.23,2.62v7.77a13.8,13.8,0,0,0,2.54-2.42,46.909,46.909,0,0,1-1.07-8.78H197.7v12.93a16.366,16.366,0,0,0,.39,3.07H195c.12-1-.34-1.68-.34-3.1v-2.28a28.3,28.3,0,0,1-3.58,1.17,9.033,9.033,0,0,0-1.91.62l-.43-3.24a15.905,15.905,0,0,0,1.92-.25V6.724c-1,0-1,.06-2,.12V3.634a26.527,26.527,0,0,0,2.82,0h4.78a13,13,0,0,0,2.4,0v1.85a17.517,17.517,0,0,0,2.11.16h1.89v-.22c0-1.23-.5-1.78-.66-2.78h3.27c-.12,1-.61,1.58-.61,2.78v.22h1.54c1.08,0,1.46-.06,2.46-.12Zm-16,2.54h2v-4h-2Zm0,6h2v-4h-2Zm0,6.3c1-.27,2-.34,2-.58v-3.72h-2Zm7.83-11.3a31.233,31.233,0,0,0-.71-3.44,3.725,3.725,0,0,0-1.12-.06V6.784l-1-.06v4.92Zm1.17,8h4v-2h-4Zm0,5h4v-2h-4Zm.75-17a35.177,35.177,0,0,1,.52,4h1.26a19.944,19.944,0,0,0,.68-4Zm12.21-3.45a21.453,21.453,0,0,1,2.41,4.59l-2.38,1.39a16.192,16.192,0,0,0-2.22-4.81Z" fill="#231815"/>
        <path id="パス_11" data-name="パス 11" d="M236.791,13.644a27.607,27.607,0,0,0,4.35,7.78,20.78,20.78,0,0,0,8.36,5.72,12.732,12.732,0,0,0-2.22,3.45,24.988,24.988,0,0,1-7.47-5.53,23.223,23.223,0,0,1-4.57-7.35,18.3,18.3,0,0,1-4.93,8.11,23.011,23.011,0,0,1-7.22,4.75,12.566,12.566,0,0,0-2.09-3.18,21.5,21.5,0,0,0,4.9-2.48,15.258,15.258,0,0,0,6.79-11.27H225.6a31.866,31.866,0,0,0-3.86,0V9.8c1,.13,2.07-.16,3.86-.16H233c.06-1,.06-1.69.06-3.3a14.364,14.364,0,0,0-.21-2.7h4a16.635,16.635,0,0,0-.22,3.26c0,1.23,0,1.74-.06,2.74h8c1.7,0,3.11.29,4.11.16v3.8c-1-.13-2.44,0-4.08,0Z" fill="#231815"/>
        <path id="パス_12" data-name="パス 12" d="M257.211,22.644a25.317,25.317,0,0,0-3.51,0v-3.37a23.357,23.357,0,0,0,3.48.37h8.52v-.4a4.481,4.481,0,0,0-.37-1.6h1.29c1.3-1,2.32-1,3.58-2h-8.33c-1.23,0-2.17-.47-3.17-.38v-3a28.191,28.191,0,0,0,3.2.37h10a10.809,10.809,0,0,0,2.31-.25l1.67,1.79c-.49.4-.52.37-1.1.87-2.13,1.82-4.08,2.93-6.08,4.38v.21h7.92a31.688,31.688,0,0,0,4.08-.37v3.33c-1-.12-2.51,0-4.11,0H268.7v5.06a3.21,3.21,0,0,1-.34,1.91c-.53.74-1.56,1-4.28,1-.4,0-1.38,0-3-.1a10.409,10.409,0,0,0-1-3.21,33.206,33.206,0,0,0,3.91.28c1.32,0,1.68-.09,1.68-.68v-4.21Zm1.58-15c-.68-1-1.11-2-2.25-3.5l3-.86a20.424,20.424,0,0,1,2.74,4.36h3.18a9.671,9.671,0,0,0-1.79-3.87l3.12-.86a24.654,24.654,0,0,1,2.1,4.73h2.56a17.756,17.756,0,0,0,2.49-4.65l3.27,1a38.822,38.822,0,0,1-2.29,3.65h1.36a29.915,29.915,0,0,0,3.64-.2,15.839,15.839,0,0,0-.22,2.42v2.81a5.314,5.314,0,0,0,.34,2H276.7v-4h-20v4h-2.94a12.374,12.374,0,0,0-.06-2V9.864a21.241,21.241,0,0,0,0-2.42,28.638,28.638,0,0,0,3.68.2Z" fill="#231815"/>
        <path id="パス_13" data-name="パス 13" d="M2.431,17.764C6.661,7.3,12,1.064,15.321.994c4-.11,6.3,2.37,8.12,6.74s2.86,8.26,3.68,10.26,5.09,7,7.49,7.9,3.81,1,5.91-.55,3.88-6.09,5.32-11.09,2.07-10.53.45-11.4-4.52.33-8.07,2.57-9.39,8-16.67,16.36c0,0,9.39-13,16.57-18.22,7.69-5.57,12.8-3.22,14.17-2.14s3.54,3.45,2.24,9.71-5.91,18-10.24,22.62a8.859,8.859,0,0,1-7.82,3c-3.32-.48-6.38-7-7.55-10.38s-.9-4.28-2.17-6.83-5.75-6.85-8.37-7.84-4.41-.29-5.53,1.56-4.54,7.48-5.58,13.73.08,7.45,3.24,7c5.68-.77,17.44-13.17,23.06-19.8,0,0-6.94,10.33-13.7,16.35s-11.51,7.92-16.74,5.35c-6.61-3.25-.7-18.13-.7-18.13" fill="#db5411"/>
        <path id="パス_14" data-name="パス 14" d="M11.681,38.644l-1.56,5H8.911l1.56-5Zm3.62,0-2.76,2.4,1.4,2.6h-1.61L11,41.084l2.77-2.44Z" fill="#11337f"/>
        <path id="パス_15" data-name="パス 15" d="M17.931,38.644h1.72l.33,5h-1.33l-.08-1h-2.05l-.77,1h-1.33Zm.67,3-.12-2.34-1.35,2.34Z" fill="#11337f"/>
        <path id="パス_16" data-name="パス 16" d="M23.781,38.644l-1.56,5h-1.26l1.56-5Z" fill="#11337f"/>
        <path id="パス_17" data-name="パス 17" d="M29.621,39.644h-3.07c-.44,0-.53-.1-.63.24l-.1.4c-.07.27,0,.36.54.36h1.77c.69,0,.81-.1,1,0s.29.35.17.83l-.3,1.24a1.349,1.349,0,0,1-.84.91c-.32.14-.64,0-1.4,0h-3.25l.3-1h2.94c.77,0,.86.06.95-.24l.15-.44c.09-.36,0-.32-.79-.32h-1.67c-.86,0-1.16-.38-1-1.06l.28-.84c.27-.9.72-1.1,1.61-1.1H29.9Z" fill="#11337f"/>
        <path id="パス_18" data-name="パス 18" d="M32.361,38.644l-.6,2H34.2l.6-2h1.24l-1.57,5h-1.24l.67-2h-2.44l-.67,2h-1.23l1.56-5Z" fill="#11337f"/>
        <path id="パス_19" data-name="パス 19" d="M38.621,38.644l-1.56,5H35.8l1.56-5Z" fill="#11337f"/>
        <path id="パス_20" data-name="パス 20" d="M62.7,36.644h1v7h-1Zm4,7-2.86-3.65,2.91-3.31h1.67l-3,3.22,3,3.78Z" fill="#231815"/>
        <path id="パス_21" data-name="パス 21" d="M69.7,43.644l2.83-7h1.4l2.83,7h-1.47l-.63-2h-3l-.62,2Zm2.39-3h2.17l-1.09-3.09Z" fill="#231815"/>
        <rect id="長方形_84" data-name="長方形 84" width="1" height="7" transform="translate(79.701 36.645)" fill="#231815"/>
        <path id="パス_22" data-name="パス 22" d="M83.7,42.334a8.72,8.72,0,0,0,2,.37c.9,0,1.29-.37,1.29-.87s-.15-.78-1.1-1.23l-.51-.24c-1.18-.55-1.53-1.17-1.53-2.06,0-1.25.73-2.19,2.42-2.19.49,0,1.47.08,1.47.24v1.28c0-.22-.89-.32-1.47-.32-.8,0-1.16.3-1.16.82s.2.68,1,1l.57.25c1.21.58,1.78,1.13,1.78,2.11,0,1.45-1,2.36-2.83,2.36a9.7,9.7,0,0,1-1.87-.3Z" fill="#231815"/>
        <path id="パス_23" data-name="パス 23" d="M91.7,43.644v-7h1v3h4v-3h1v7h-1v-3h-4v3Z" fill="#231815"/>
        <rect id="長方形_85" data-name="長方形 85" width="2" height="7" transform="translate(100.701 36.645)" fill="#231815"/>
        <path id="パス_24" data-name="パス 24" d="M109.7,43.644v-7h2.59c1.46,0,2.46.36,2.46,1.82s-1,2.18-2.62,2.18H110.7v3Zm1-6v2h1.22c.86,0,1.38-.14,1.38-1s-.45-1-1.32-1Z" fill="#231815"/>
        <path id="パス_25" data-name="パス 25" d="M117.7,43.644v-7h2.37c1.46,0,2.34.48,2.34,1.8a1.91,1.91,0,0,1-1.48,2l2.29,3.24h-1.63l-1.89-3h-1v3Zm1-6v2h.81c.87,0,1.48-.22,1.48-1.07s-.49-.93-1.27-.93Z" fill="#231815"/>
        <path id="パス_26" data-name="パス 26" d="M125,40.094c0-2.49,1.43-4,3.54-4s3.46,1.21,3.46,3.9c0,2.49-1.4,4-3.53,4s-3.47-1.23-3.47-3.9m5.63-.1c0-2.1-1-2.65-2.09-2.65s-2.09.64-2.09,2.74,1,2.63,2.09,2.63,2.09-.63,2.09-2.72" fill="#231815"/>
        <path id="パス_27" data-name="パス 27" d="M134.711,43.644v-7h5v1h-3v2h2v1h-2v3Z" fill="#231815"/>
        <path id="パス_28" data-name="パス 28" d="M142.711,43.644v-7h4v1h-3v2h3v1h-3v2h3v1Z" fill="#231815"/>
        <path id="パス_29" data-name="パス 29" d="M149.7,42.334c0,.21,1.07.37,1.78.37.9,0,1.2-.37,1.2-.87s-.19-.78-1.15-1.23l-.53-.24c-1.18-.55-1.55-1.17-1.55-2.06,0-1.25.91-2.19,2.6-2.19a10.32,10.32,0,0,1,1.65.24v1.28a6.677,6.677,0,0,0-1.65-.32c-.81,0-1.25.3-1.25.82s.16.68.93,1l.55.25c1.21.58,1.76,1.13,1.76,2.11,0,1.45-.84,2.36-2.64,2.36-.72,0-1.7-.13-1.7-.3Z" fill="#231815"/>
        <path id="パス_30" data-name="パス 30" d="M156.7,42.334c0,.21,1.11.37,1.82.37.9,0,1.22-.37,1.22-.87s-.19-.78-1.14-1.23l-.53-.24c-1.18-.55-1.54-1.17-1.54-2.06,0-1.25.87-2.19,2.56-2.19.49,0,1.61.08,1.61.24v1.28a6.393,6.393,0,0,0-1.62-.32c-.8,0-1.22.3-1.22.82s.16.68.93,1l.56.25c1.21.58,1.77,1.13,1.77,2.11,0,1.45-.88,2.36-2.69,2.36-.71,0-1.73-.13-1.73-.3Z" fill="#231815"/>
        <rect id="長方形_86" data-name="長方形 86" width="2" height="7" transform="translate(163.701 36.645)" fill="#231815"/>
        <path id="パス_31" data-name="パス 31" d="M168.491,40.094c0-2.49,1.43-4,3.54-4s3.52,1.17,3.52,3.85c0,2.49-1.39,4-3.52,4s-3.54-1.18-3.54-3.85m5.63-.1c0-2.1-1-2.65-2.09-2.65s-2.09.64-2.09,2.74,1,2.63,2.09,2.63,2.09-.63,2.09-2.72" fill="#231815"/>
        <path id="パス_32" data-name="パス 32" d="M178.711,43.644v-7h1.21l3.79,4.62v-4.62h1v7h-1.22l-3.78-5.45v5.45Z" fill="#231815"/>
        <path id="パス_33" data-name="パス 33" d="M186.921,43.644l2.83-7h1.4l2.83,7h-1.46l-.64-2h-3l-.62,2Zm2.39-3h2.17l-1.09-3.09Z" fill="#231815"/>
        <path id="パス_34" data-name="パス 34" d="M196.711,43.644v-7h1v6h4v1Z" fill="#231815"/>
        <path id="パス_35" data-name="パス 35" d="M211.7,36.644h2v4.35a2.81,2.81,0,0,1-2.606,3,2.878,2.878,0,0,1-.394,0,2.68,2.68,0,0,1-3-3v-4.35h1v4c0,1.29.26,2.09,1.55,2.09,1.11,0,1.45-.67,1.45-2.09Z" fill="#231815"/>
        <path id="パス_36" data-name="パス 36" d="M216.711,43.644v-7h1.43l3.57,4.62v-4.62h1v7h-1l-4-5.45v5.45Z" fill="#231815"/>
        <rect id="長方形_87" data-name="長方形 87" width="1" height="7" transform="translate(226.701 36.645)" fill="#231815"/>
        <path id="パス_37" data-name="パス 37" d="M232.851,43.644l-2.5-7h1.43l1.89,5.96,1.95-5.96h1.39l-2.55,7Z" fill="#231815"/>
        <path id="パス_38" data-name="パス 38" d="M239.711,43.644v-7h4v1h-3v2h3v1h-3v2h4v1Z" fill="#231815"/>
        <path id="パス_39" data-name="パス 39" d="M247.7,43.644v-7h2.17c1.46,0,2.34.48,2.34,1.8a1.92,1.92,0,0,1-1.47,2l2.26,3.2h-1.6l-1.9-3h-.8v3Zm1-6v2h.61c.87,0,1.49-.22,1.49-1.07s-.5-.93-1.28-.93Z" fill="#231815"/>
        <path id="パス_40" data-name="パス 40" d="M254.7,42.334a8.829,8.829,0,0,0,2,.37c.9,0,1.31-.37,1.31-.87s-.14-.78-1.1-1.23l-.5-.24c-1.19-.55-1.54-1.17-1.54-2.06,0-1.25.7-2.19,2.39-2.19.49,0,1.44.08,1.44.24v1.28c0-.22-.85-.32-1.44-.32-.8,0-1.13.3-1.13.82s.21.68,1,1l.57.25c1.22.58,1.79,1.13,1.79,2.11,0,1.45-1.05,2.36-2.86,2.36a9.867,9.867,0,0,1-1.91-.3Z" fill="#231815"/>
        <rect id="長方形_88" data-name="長方形 88" width="1" height="7" transform="translate(262.701 36.645)" fill="#231815"/>
        <path id="パス_41" data-name="パス 41" d="M268.7,43.644v-6h-2v-1h6v1h-2v6Z" fill="#231815"/>
        <path id="パス_42" data-name="パス 42" d="M276.7,43.644v-2.8l-2.62-4.2h1.49l1.69,3.39,1.69-3.39h1.4l-2.65,4.19v2.81Z" fill="#231815"/>
      </g>
    </g>
  </g>
</svg>
