<svg xmlns="http://www.w3.org/2000/svg" xmlns:xlink="http://www.w3.org/1999/xlink" width="331.91" height="52.047" viewBox="0 0 331.91 52.047">
  <defs>
    <clipPath id="clip-path">
      <rect id="長方形_125" data-name="長方形 125" width="331.91" height="52.047" transform="translate(0 0)" fill="none"/>
    </clipPath>
  </defs>
  <g id="グループ_131" data-name="グループ 131" transform="translate(0 0)">
    <g id="グループ_130" data-name="グループ 130" clip-path="url(#clip-path)">
      <path id="パス_48" data-name="パス 48" d="M77.689,31.849a20.735,20.735,0,0,0,.579,4.387H74.106a42.586,42.586,0,0,0,0-4.434V4.138a34.272,34.272,0,0,0,3.737.13h6.492a36.266,36.266,0,0,0,3.9-.13c-.071,1.017.106,2.093.106,3.334v5.534c0,1.608-.213,2.365-.142,3.24-.875-.071-2.223-.083-3.547-.083H77.689Zm0-22.809h7.095V6.675H77.689Zm0,4.73h7.095V11.4H77.689Zm6.338,10.642c.071-1.182-.154-1.88-.154-3.547-1.644,0-2.637-.166-3.819-.059V17.648c1.182.118,2.365-.331,4.079-.331H94.6c1.75,0,3.252.449,3.252.331v3.181a15.152,15.152,0,0,0-3.547-.154v3.737h.8a27.365,27.365,0,0,0,3.926-.556V27.1a33.947,33.947,0,0,0-3.926-.319H94.24v5.475a6.263,6.263,0,0,0,.438,2.8H90.956c.154-1.182-.26-1.277-.26-2.85V26.777H87.148a13.142,13.142,0,0,1-4.375,8.88,13.406,13.406,0,0,0-2.838-2.365A8.637,8.637,0,0,0,83.8,26.966a33.325,33.325,0,0,0-3.725.166V23.856a22.356,22.356,0,0,0,3.547.556Zm3.429-3.547c0,1.182,0,1.182-.106,3.547H90.7V20.864ZM104.885,31.8c0,3.181-1.3,4.02-5.356,4.02-.579,0-1.253,0-2.365-.071a11.605,11.605,0,0,0-1.111-3.831,23.2,23.2,0,0,0,3,.3c1.182,0,1.1-.154,1.1-.922V16.138h-9.67a30.961,30.961,0,0,0,.213-3.133V7.515c0-1.313-.142-2.282-.213-3.334a29.783,29.783,0,0,0,3.547.13h6.823a37.829,37.829,0,0,0,3.926-.13c-.106,1.313.106,2.2.106,3.985ZM94.243,9.038h5.912V6.675H94.243Zm0,4.73h5.912V11.4H94.243Z" fill="#fff"/>
      <path id="パス_49" data-name="パス 49" d="M110.441,32.1a23.129,23.129,0,0,0,4.257-9.921l3.689.875A34.212,34.212,0,0,1,114.1,34.283ZM124.986,6.556a17.6,17.6,0,0,0-.426-3.429h4.458a21.662,21.662,0,0,0-.485,3.429v1.3H138.5a30.17,30.17,0,0,0,4.222-.373v4.044c-1.182-.106-2.613-.118-4.221-.118h-9.968v4.73h8.277a20.659,20.659,0,0,0,3.547-.449v3.831c-1.182-.142-1.927.166-3.642.166H117.371c-1.7,0-3.027-.307-4.209-.166V15.683a28.73,28.73,0,0,0,4.209.449h7.615V11.4h-9.365a34.857,34.857,0,0,0-3.642.118V7.483a12.053,12.053,0,0,0,3.642.378h9.365Zm-1.111,14.307a25,25,0,0,0-.071,3.547v6.326c0,1.182.307,1.277,3.843,1.277s4.209-.106,4.576-.662.449-1.348.532-4.008a9.021,9.021,0,0,0,3.855,1.277c-.367,6.6-.828,7.095-9.282,7.095-6.054,0-7.1-.591-7.1-3.618V24.4a22.516,22.516,0,0,0-.579-3.547Zm5.912,7.26a26.675,26.675,0,0,0-5.439-5.912l2.731-2.188a32.944,32.944,0,0,1,5.546,5.581Zm10.1,5.617a40.27,40.27,0,0,0-4.846-10.1l3.311-1.573a53.883,53.883,0,0,1,5.179,9.625Z" fill="#fff"/>
      <path id="パス_50" data-name="パス 50" d="M152.691,9.04a38.859,38.859,0,0,0-4.056.414V5.765q2.075-.033,4.139-.272h9.838a13.4,13.4,0,0,0-.213-2.365h4.2a12.266,12.266,0,0,0-.225,2.365h10.512c1.821,0,2.495.449,3.677.272V9.454a29.981,29.981,0,0,0-3.549-.371H166.372v2.365h7.993a19.962,19.962,0,0,0,3.1-.378,15.111,15.111,0,0,0-.449,2.613v7c0,1.182.579,1.785.686,2.814-1.064-.071-1.868-.106-3.051-.106v2.247h2.27c1.821,0,2.459-.615,3.642-.792V28.5a31.861,31.861,0,0,0-3.547-.5h-2.365v4.98a2.64,2.64,0,0,1-1.36,2.483c-.8.508-2.164.686-4.73.686-.508,0-1.336,0-2.542-.071a11.762,11.762,0,0,0-1.123-3.642,25.773,25.773,0,0,0,3.784.3c1.313,0,1.265-.118,1.265-.8v-3.98H152.691c-1.277,0-2.873.378-4.056.5v-3.63a23.019,23.019,0,0,0,4.139.792h17.145V23.253H155.28c-1.632,0-2.294.095-3.311.166a23.081,23.081,0,0,0,.213-2.755V13.64a20.219,20.219,0,0,0-.213-2.613,22.726,22.726,0,0,0,3.311.378h7.544V9.04Zm7.627,26.427a21.892,21.892,0,0,0-5-4.73l2.85-2.294a21.237,21.237,0,0,1,5.144,4.446Zm-4.584-19.332h7.1V13.77h-7.1Zm0,4.73h7.1V18.5h-7.1Zm10.642-4.73h7.095V13.77h-7.095Zm0,4.73h7.095V18.5h-7.095Z" fill="#fff"/>
      <path id="パス_51" data-name="パス 51" d="M191.2,31.766a24.716,24.716,0,0,0,.532,4.47H187.5a38.553,38.553,0,0,0,.154-4.47V8.271c0-1.9,0-2.956-.106-4.091a32.931,32.931,0,0,0,3.677.083h6.338a27.255,27.255,0,0,0,3.429-.083c-.071.993-.331,2.01-.331,3.394v6.965a18.53,18.53,0,0,0,.3,3c-.84,0-1.785-.272-3.027-.272h-6.728Zm0-21.544h5.912V7.857H191.2Zm0,4.73h5.912V12.587H191.2Zm26.014,16.743c0,3.429-.887,4.091-6,4.091-.65,0-1.443,0-2.9-.083a15.942,15.942,0,0,0-.97-3.9,38.18,38.18,0,0,0,4.931.331c1.1,0,1.383-.142,1.383-.875V17.317H206.93c-1.312,0-2.27.236-3.039.272a18.245,18.245,0,0,0,.378-3V7.621c0-1.182-.307-2.294-.378-3.394a26.88,26.88,0,0,0,3.37.083h6.716a30.425,30.425,0,0,0,3.547-.083,39.35,39.35,0,0,0-.307,4.044Zm-9.46-21.473h5.912V7.857h-5.912Zm0,4.73h5.912V12.587h-5.912Z" fill="#fff"/>
      <path id="パス_52" data-name="パス 52" d="M246.777,9.583a3.659,3.659,0,0,0-1.324.142,38.344,38.344,0,0,1-1.076,4.044h2.85c-.071-2.365-.071-2.885-.106-7.662A22.993,22.993,0,0,0,247,3.127h3.76a31.582,31.582,0,0,0-.213,4.919c0,1.277,0,4.541.071,5.723H252.7a12.594,12.594,0,0,0,3.547-.568v3.76c-1.182-.154-1.431.355-3.547.355h-1.939c.142,2.365.367,4.434.662,6.291a23.632,23.632,0,0,0,2-5.274l2.921,1.762c-.213.438-.508,1.017-.8,1.679a42.371,42.371,0,0,1-3.063,5.912,15.777,15.777,0,0,0,1.182,2.944c.331.556.473.733.544.733.26,0,.473-1.679.591-4.493a13.628,13.628,0,0,0,2.838,1.892,16.548,16.548,0,0,1-1.052,5.226,2.426,2.426,0,0,1-2.187,1.667c-1.537,0-3.216-1.75-4.493-4.623a30.8,30.8,0,0,1-5.723,5.286,12.263,12.263,0,0,0-2.27-2.944c1.277-.84,1.726-.7,2.448-1.88h-5.912v2.365h-2.8a24.958,24.958,0,0,0,.438-2.826v-9.7a22.6,22.6,0,0,0-.248-3.063,10.544,10.544,0,0,0,2.14.225h5.664a18.05,18.05,0,0,0,2.176-.225,15.574,15.574,0,0,0-.272,3.1v9.188a16.3,16.3,0,0,0,3-2.861,55.464,55.464,0,0,1-1.265-10.382h-13.5V32.6a19.38,19.38,0,0,0,.461,3.63h-3.654c.142-1.182-.4-1.986-.4-3.666v-2.7a33.482,33.482,0,0,1-4.233,1.383,10.718,10.718,0,0,0-2.258.733l-.508-3.831a18.854,18.854,0,0,0,2.27-.3V7.951c-1.182,0-1.182.071-2.365.142v-3.8a31.422,31.422,0,0,0,3.334,0h5.652a15.287,15.287,0,0,0,2.838,0v2.19a20.821,20.821,0,0,0,2.495.189h2.235v-.26c0-1.454-.591-2.1-.78-3.287h3.851C242.578,4.307,242,4.993,242,6.412v.26h1.821c1.277,0,1.726-.071,2.909-.142Zm-18.919,3h2.362V7.857h-2.365Zm0,7.095h2.362v-4.73h-2.365Zm0,7.449c1.182-.319,2.365-.4,2.365-.686v-4.4h-2.365Zm9.262-13.358a36.821,36.821,0,0,0-.84-4.068,4.425,4.425,0,0,0-1.324-.071V8.022l-1.182-.071v5.818Zm1.383,9.46h4.73V20.864H238.5Zm0,5.912h4.73V26.776H238.5Zm.887-20.1a41.6,41.6,0,0,1,.615,4.73h1.49a23.544,23.544,0,0,0,.8-4.73ZM253.82,4.96a25.343,25.343,0,0,1,2.85,5.427l-2.814,1.644a19.163,19.163,0,0,0-2.625-5.688Z" fill="#fff"/>
      <path id="パス_53" data-name="パス 53" d="M279.992,16.133a32.641,32.641,0,0,0,5.144,9.2,24.569,24.569,0,0,0,9.885,6.764,15.051,15.051,0,0,0-2.625,4.079,29.542,29.542,0,0,1-8.833-6.539,27.457,27.457,0,0,1-5.4-8.691,21.647,21.647,0,0,1-5.829,9.59,27.193,27.193,0,0,1-8.537,5.617,14.876,14.876,0,0,0-2.477-3.761,25.43,25.43,0,0,0,5.794-2.932,18.04,18.04,0,0,0,8.029-13.326H266.76a37.77,37.77,0,0,0-4.564,0V11.593c1.182.154,2.448-.189,4.564-.189h8.75c.071-1.182.071-2,.071-3.9a17,17,0,0,0-.248-3.193h4.73a19.673,19.673,0,0,0-.26,3.855c0,1.454,0,2.057-.071,3.24h9.46c2.01,0,3.677.343,4.86.189v4.493c-1.182-.154-2.885,0-4.824,0Z" fill="#fff"/>
      <path id="パス_54" data-name="パス 54" d="M304.137,26.776a29.936,29.936,0,0,0-4.15,0V22.791a27.593,27.593,0,0,0,4.115.438h10.074v-.473a5.3,5.3,0,0,0-.437-1.892h1.525c1.537-1.182,2.743-1.182,4.233-2.365h-9.85c-1.454,0-2.566-.556-3.748-.449V14.5a33.385,33.385,0,0,0,3.784.438h11.824a12.8,12.8,0,0,0,2.731-.3l1.975,2.117c-.579.473-.615.438-1.3,1.029-2.519,2.152-4.824,3.465-7.189,5.179v.248h9.362a37.484,37.484,0,0,0,4.824-.438v3.938c-1.182-.142-2.968,0-4.86,0h-9.329V32.7a3.8,3.8,0,0,1-.4,2.258c-.627.875-1.845,1.182-5.061,1.182-.473,0-1.632,0-3.547-.118a12.29,12.29,0,0,0-1.182-3.8,39.278,39.278,0,0,0,4.623.331c1.561,0,1.986-.106,1.986-.8V26.776Zm1.869-17.737c-.8-1.182-1.312-2.365-2.66-4.139l3.547-1.017a24.158,24.158,0,0,1,3.24,5.155h3.76a11.435,11.435,0,0,0-2.117-4.576l3.689-1.017a29.123,29.123,0,0,1,2.483,5.593h3.027a20.992,20.992,0,0,0,2.944-5.5l3.867,1.185a45.777,45.777,0,0,1-2.708,4.316h1.608a35.3,35.3,0,0,0,4.3-.236,18.669,18.669,0,0,0-.26,2.861v3.323a6.276,6.276,0,0,0,.4,2.365h-3.94v-4.73H303.534v4.73h-3.476a14.712,14.712,0,0,0-.071-2.365V11.664a25.29,25.29,0,0,0,0-2.861,33.832,33.832,0,0,0,4.351.236Z" fill="#fff"/>
      <path id="パス_55" data-name="パス 55" d="M2.875,21c5-12.363,11.316-19.742,15.242-19.825,4.73-.13,7.449,2.8,9.6,7.97s3.382,9.767,4.351,12.132,6.019,8.277,8.856,9.341,4.505,1.182,6.988-.65,4.588-7.2,6.291-13.113,2.448-12.451.532-13.48-5.345.39-9.542,3.039-11.1,9.46-19.711,19.345c0,0,11.1-15.372,19.593-21.544C54.17-2.372,60.212.407,61.832,1.684s4.186,4.079,2.649,11.481S57.492,34.449,52.372,39.912a10.476,10.476,0,0,1-9.247,3.547c-3.926-.568-7.544-8.277-8.927-12.274s-1.064-5.061-2.566-8.076-6.8-8.1-9.9-9.27S16.521,13.5,15.2,15.684,9.828,24.529,8.6,31.919s.1,8.809,3.831,8.277c6.716-.91,20.622-15.573,27.267-23.412,0,0-8.206,12.215-16.2,19.333S9.887,45.481,3.7,42.443C-4.113,38.6,2.875,21,2.875,21" fill="#db5411"/>
      <path id="パス_56" data-name="パス 56" d="M13.813,45.695l-1.845,5.912h-1.43l1.845-5.912Zm4.28,0-3.266,2.838,1.655,3.074h-1.9L13.009,48.58l3.275-2.885Z" fill="#11337f"/>
      <path id="パス_57" data-name="パス 57" d="M21.2,45.695h2.034l.4,5.912H22.055l-.1-1.182H19.532l-.91,1.182H17.053ZM22,49.242l-.142-2.767-1.6,2.767Z" fill="#11337f"/>
      <path id="パス_58" data-name="パス 58" d="M28.125,45.7,26.28,51.607H24.79L26.635,45.7Z" fill="#11337f"/>
      <path id="パス_59" data-name="パス 59" d="M35.026,46.877H31.4c-.52,0-.627-.118-.745.284l-.118.473c-.083.319,0,.426.639.426h2.093c.816,0,.958-.118,1.182,0s.343.414.2.981l-.357,1.466a1.6,1.6,0,0,1-.993,1.076c-.378.166-.757,0-1.655,0H27.8l.355-1.182h3.476c.91,0,1.017.071,1.123-.284l.177-.52c.106-.426,0-.378-.934-.378H30.024c-1.017,0-1.372-.449-1.182-1.253l.331-.993c.319-1.064.851-1.3,1.9-1.3h4.28Z" fill="#11337f"/>
      <path id="パス_60" data-name="パス 60" d="M38.266,45.7l-.709,2.365h2.885l.709-2.365h1.466l-1.856,5.912H39.294l.792-2.365H37.2l-.792,2.365H34.955L36.8,45.7Z" fill="#11337f"/>
      <path id="パス_61" data-name="パス 61" d="M45.667,45.7l-1.845,5.912h-1.49L44.177,45.7Z" fill="#11337f"/>
      <path id="パス_62" data-name="パス 62" d="M74.14,43.33h1.182v8.277H74.14Zm4.73,8.277-3.382-4.316,3.441-3.914H80.9l-3.547,3.809,3.547,4.47Z" fill="#fff"/>
      <path id="パス_63" data-name="パス 63" d="M82.417,51.607l3.346-8.277h1.654l3.346,8.277H89.028l-.745-2.365H84.736L84,51.607Zm2.826-3.547h2.566l-1.292-3.654Z" fill="#fff"/>
      <rect id="長方形_120" data-name="長方形 120" width="1.182" height="8.277" transform="translate(94.242 43.33)" fill="#fff"/>
      <path id="パス_64" data-name="パス 64" d="M98.971,50.058a10.287,10.287,0,0,0,2.365.438c1.064,0,1.525-.437,1.525-1.029s-.177-.922-1.3-1.454l-.6-.284c-1.4-.65-1.809-1.383-1.809-2.436,0-1.478.863-2.59,2.862-2.59.579,0,1.738.1,1.738.284V44.5c0-.26-1.052-.378-1.738-.378-.946,0-1.372.355-1.372.97s.236.8,1.182,1.182l.674.3c1.431.686,2.1,1.336,2.1,2.495,0,1.715-1.182,2.791-3.346,2.791a11.49,11.49,0,0,1-2.211-.355Z" fill="#fff"/>
      <path id="パス_65" data-name="パス 65" d="M108.431,51.607V43.33h1.182v3.547h4.73V43.33h1.188v8.277h-1.187V48.06h-4.73v3.547Z" fill="#fff"/>
      <rect id="長方形_121" data-name="長方形 121" width="2.365" height="8.277" transform="translate(119.074 43.33)" fill="#fff"/>
      <path id="パス_66" data-name="パス 66" d="M129.715,51.607V43.33h3.063c1.726,0,2.909.426,2.909,2.152s-1.182,2.578-3.1,2.578H130.9v3.547Zm1.182-7.095v2.365h1.443c1.017,0,1.632-.166,1.632-1.182s-.532-1.182-1.561-1.182Z" fill="#fff"/>
      <path id="パス_67" data-name="パス 67" d="M139.174,51.607V43.33h2.8c1.726,0,2.767.568,2.767,2.128a2.259,2.259,0,0,1-1.75,2.365l2.708,3.831h-1.925l-2.235-3.547h-1.182v3.547Zm1.182-7.095v2.365h.958c1.029,0,1.75-.26,1.75-1.265s-.579-1.1-1.5-1.1Z" fill="#fff"/>
      <path id="パス_68" data-name="パス 68" d="M147.806,47.409c0-2.944,1.691-4.73,4.186-4.73s4.091,1.431,4.091,4.612c0,2.944-1.655,4.73-4.174,4.73s-4.1-1.454-4.1-4.612m6.657-.118c0-2.483-1.182-3.133-2.471-3.133s-2.471.757-2.471,3.24,1.182,3.11,2.471,3.11,2.471-.745,2.471-3.216" fill="#fff"/>
      <path id="パス_69" data-name="パス 69" d="M159.288,51.607V43.33H165.2v1.182h-3.547v2.365h2.365v1.182h-2.365v3.547Z" fill="#fff"/>
      <path id="パス_70" data-name="パス 70" d="M168.748,51.607V43.33h4.73v1.182h-3.547v2.365h3.547v1.182h-3.547v2.365h3.547v1.182Z" fill="#fff"/>
      <path id="パス_71" data-name="パス 71" d="M177.014,50.058c0,.248,1.265.438,2.1.438,1.064,0,1.419-.437,1.419-1.029s-.225-.922-1.36-1.454l-.627-.284c-1.4-.65-1.833-1.383-1.833-2.436,0-1.478,1.076-2.59,3.074-2.59a12.236,12.236,0,0,1,1.951.284V44.5a7.864,7.864,0,0,0-1.951-.378c-.958,0-1.478.355-1.478.97s.189.8,1.1,1.182l.65.3c1.431.686,2.081,1.336,2.081,2.495,0,1.715-.993,2.791-3.122,2.791-.851,0-2.01-.154-2.01-.355Z" fill="#fff"/>
      <path id="パス_72" data-name="パス 72" d="M185.29,50.058c0,.248,1.313.438,2.152.438,1.064,0,1.443-.437,1.443-1.029s-.225-.922-1.348-1.454l-.627-.284c-1.4-.65-1.821-1.383-1.821-2.436,0-1.478,1.029-2.59,3.027-2.59.579,0,1.9.1,1.9.284V44.5a7.6,7.6,0,0,0-1.916-.378c-.946,0-1.443.355-1.443.97s.189.8,1.1,1.182l.662.3c1.431.686,2.093,1.336,2.093,2.495,0,1.715-1.041,2.791-3.181,2.791-.84,0-2.046-.154-2.046-.355Z" fill="#fff"/>
      <rect id="長方形_122" data-name="長方形 122" width="2.365" height="8.277" transform="translate(193.567 43.33)" fill="#fff"/>
      <path id="パス_73" data-name="パス 73" d="M199.231,47.409c0-2.944,1.691-4.73,4.186-4.73s4.162,1.383,4.162,4.552c0,2.944-1.644,4.73-4.162,4.73s-4.186-1.4-4.186-4.552m6.657-.118c0-2.483-1.182-3.133-2.471-3.133s-2.471.757-2.471,3.24,1.182,3.11,2.471,3.11,2.471-.745,2.471-3.216" fill="#fff"/>
      <path id="パス_74" data-name="パス 74" d="M211.316,51.607V43.33h1.431l4.481,5.463V43.33h1.182v8.277h-1.443l-4.47-6.444v6.444Z" fill="#fff"/>
      <path id="パス_75" data-name="パス 75" d="M221.023,51.607l3.346-8.277h1.655l3.346,8.277h-1.726l-.757-2.365H223.34l-.733,2.365Zm2.826-3.547h2.566l-1.289-3.654Z" fill="#fff"/>
      <path id="パス_76" data-name="パス 76" d="M232.6,51.607V43.33h1.182v7.1h4.73v1.182Z" fill="#fff"/>
      <path id="パス_77" data-name="パス 77" d="M250.325,43.33h2.365v5.144a3.322,3.322,0,0,1-3.547,3.547,3.169,3.169,0,0,1-3.547-2.739,3.213,3.213,0,0,1,0-.808V43.33h1.182v4.73c0,1.525.307,2.471,1.833,2.471,1.313,0,1.715-.792,1.715-2.471Z" fill="#fff"/>
      <path id="パス_78" data-name="パス 78" d="M256.248,51.607V43.33h1.689l4.221,5.463V43.33h1.182v8.277h-1.182l-4.73-6.444v6.444Z" fill="#fff"/>
      <rect id="長方形_123" data-name="長方形 123" width="1.182" height="8.277" transform="translate(268.061 43.33)" fill="#fff"/>
      <path id="パス_79" data-name="パス 79" d="M275.333,51.607l-2.956-8.277h1.691l2.235,7.047,2.306-7.047h1.644l-3.015,8.277Z" fill="#fff"/>
      <path id="パス_80" data-name="パス 80" d="M283.444,51.607V43.33h4.73v1.182h-3.547v2.365h3.547v1.182h-3.547v2.365h4.73v1.182Z" fill="#fff"/>
      <path id="パス_81" data-name="パス 81" d="M292.891,51.607V43.33h2.566c1.726,0,2.767.568,2.767,2.128a2.269,2.269,0,0,1-1.738,2.365l2.672,3.784h-1.892l-2.247-3.547h-.946v3.547Zm1.182-7.095v2.365h.721c1.029,0,1.762-.26,1.762-1.265s-.591-1.1-1.514-1.1Z" fill="#fff"/>
      <path id="パス_82" data-name="パス 82" d="M301.168,50.058a10.4,10.4,0,0,0,2.365.438c1.064,0,1.549-.437,1.549-1.029s-.166-.922-1.3-1.454l-.591-.284c-1.407-.65-1.821-1.383-1.821-2.436,0-1.478.828-2.59,2.826-2.59.579,0,1.7.1,1.7.284V44.5c0-.26-1.005-.378-1.7-.378-.946,0-1.336.355-1.336.97s.248.8,1.182,1.182l.674.3c1.443.686,2.117,1.336,2.117,2.495,0,1.715-1.242,2.791-3.382,2.791a11.656,11.656,0,0,1-2.258-.355Z" fill="#fff"/>
      <rect id="長方形_124" data-name="長方形 124" width="1.182" height="8.277" transform="translate(310.629 43.33)" fill="#fff"/>
      <path id="パス_83" data-name="パス 83" d="M317.723,51.607V44.513h-2.366V43.33h7.1v1.182h-2.365v7.095Z" fill="#fff"/>
      <path id="パス_84" data-name="パス 84" d="M327.183,51.607V48.3l-3.1-4.966h1.762l2,4.008,2-4.008H331.5l-3.135,4.955v3.323Z" fill="#fff"/>
    </g>
  </g>
</svg>
